<svg width="50" height="50" viewBox="0 0 50 50" fill="none" xmlns="http://www.w3.org/2000/svg">
<path d="M1.88 42.3C2.29421 42.3 2.63 41.9642 2.63 41.55C2.63 41.1358 2.29421 40.8 1.88 40.8C1.46579 40.8 1.13 41.1358 1.13 41.55C1.13 41.9642 1.46579 42.3 1.88 42.3Z" fill="#505050"/>
<path d="M6.05 27.13H29.21C29.62 27.13 29.96 26.79 29.96 26.38C29.96 25.97 29.62 25.63 29.21 25.63H6.05C5.64 25.63 5.3 25.97 5.3 26.38C5.3 26.79 5.64 27.13 6.05 27.13Z" fill="#505050"/>
<path d="M6.05 30.93H29.21C29.62 30.93 29.96 30.59 29.96 30.18C29.96 29.77 29.62 29.43 29.21 29.43H6.05C5.64 29.43 5.3 29.77 5.3 30.18C5.3 30.59 5.64 30.93 6.05 30.93Z" fill="#505050"/>
<path d="M6.05 23.34H29.21C29.62 23.34 29.96 23 29.96 22.59C29.96 22.18 29.62 21.84 29.21 21.84H6.05C5.64 21.84 5.3 22.18 5.3 22.59C5.3 23 5.64 23.34 6.05 23.34Z" fill="#505050"/>
<path d="M6.05 34.73H22.26C22.67 34.73 23.01 34.39 23.01 33.98C23.01 33.57 22.67 33.23 22.26 33.23H6.05C5.64 33.23 5.3 33.57 5.3 33.98C5.3 34.39 5.64 34.73 6.05 34.73Z" fill="#505050"/>
<path d="M6.05 38.52H22.26C22.67 38.52 23.01 38.18 23.01 37.77C23.01 37.36 22.67 37.02 22.26 37.02H6.05C5.64 37.02 5.3 37.36 5.3 37.77C5.3 38.18 5.64 38.52 6.05 38.52Z" fill="#505050"/>
<path d="M6.05 42.32H22.26C22.67 42.32 23.01 41.98 23.01 41.57C23.01 41.16 22.67 40.82 22.26 40.82H6.05C5.64 40.82 5.3 41.16 5.3 41.57C5.3 41.98 5.64 42.32 6.05 42.32Z" fill="#505050"/>
<path d="M6.05 19.82H15.15C15.56 19.82 15.9 19.48 15.9 19.07V7.62C15.9 7.21 15.56 6.87 15.15 6.87H6.05C5.64 6.87 5.3 7.21 5.3 7.62V19.07C5.3 19.48 5.64 19.82 6.05 19.82ZM6.8 8.37H14.4V18.32H6.8V8.37Z" fill="#505050"/>
<path d="M48.24 20.54L46.65 19.64L47.74 17.7C48.8 15.81 48.13 13.41 46.25 12.35C45.34 11.83 44.28 11.71 43.27 11.99C42.26 12.27 41.42 12.93 40.9 13.84L39.44 16.43L34.14 25.83L34.13 4.38C34.13 4.18 34.06 3.99 33.91 3.84C33.77 3.7 33.59 3.63 33.38 3.63H1.88C1.68 3.63 1.49 3.71 1.35 3.84C1.2 3.98 1.13 4.18 1.13 4.38V39.55C1.13 39.96 1.47 40.3 1.88 40.3C2.29 40.3 2.63 39.96 2.63 39.55V5.12H31.65C31.67 5.13 31.69 5.13 31.72 5.12H32.64L32.65 28.5L28.07 36.63C28.01 36.73 27.99 36.83 27.98 36.94C27.98 36.95 27.97 36.95 27.97 36.96L27.62 44.06C27.61 44.34 27.75 44.61 28 44.75C28.11 44.81 28.24 44.85 28.37 44.85C28.52 44.85 28.66 44.81 28.79 44.72L32.66 42.11V46.62H2.63V43.55C2.63 43.14 2.29 42.8 1.88 42.8C1.47 42.8 1.13 43.14 1.13 43.55V47.37C1.13 47.57 1.21 47.76 1.35 47.9C1.49 48.04 1.68 48.12 1.88 48.12H33.39C33.6 48.12 33.78 48.04 33.92 47.9C34.07 47.76 34.14 47.57 34.14 47.37V41.1L34.68 40.74C34.78 40.67 34.86 40.59 34.91 40.49L45.92 20.95L46.86 21.48L39.16 35.14C38.96 35.5 39.08 35.96 39.45 36.16C39.57 36.23 39.69 36.26 39.82 36.26C40.08 36.26 40.34 36.12 40.47 35.88L48.54 21.57C48.73 21.2 48.6 20.75 48.24 20.54ZM42.21 14.59C42.53 14.03 43.05 13.62 43.67 13.44C44.3 13.27 44.95 13.35 45.51 13.66C46.68 14.32 47.09 15.8 46.43 16.97L45.34 18.9L41.11 16.52L42.21 14.59ZM29.4 38.25L32.82 40.18L29.18 42.64L29.4 38.25ZM33.97 39.1L29.74 36.72L40.38 17.83L44.61 20.21L33.97 39.1Z" fill="#505050"/>
<path d="M10.6 11.12C11.01 11.12 11.34 11.45 11.34 11.86C11.34 12.27 11.68 12.61 12.09 12.61C12.5 12.61 12.84 12.27 12.84 11.86C12.84 10.89 12.22 10.07 11.35 9.75998V9.59998C11.35 9.18998 11.01 8.84998 10.6 8.84998C10.19 8.84998 9.85 9.17998 9.85 9.59998V9.75998C8.98 10.07 8.36 10.89 8.36 11.86C8.36 13.09 9.36 14.1 10.6 14.1C11.01 14.1 11.34 14.43 11.34 14.84C11.34 15.25 11.01 15.58 10.6 15.58C10.19 15.58 9.86 15.25 9.86 14.84C9.86 14.43 9.52 14.09 9.11 14.09C8.7 14.09 8.36 14.43 8.36 14.84C8.36 15.81 8.98 16.63 9.85 16.94V17.1C9.85 17.51 10.19 17.85 10.6 17.85C11.01 17.85 11.35 17.51 11.35 17.1V16.94C12.21 16.63 12.84 15.81 12.84 14.84C12.84 13.61 11.84 12.6 10.6 12.6C10.19 12.6 9.86 12.27 9.86 11.86C9.86 11.45 10.19 11.12 10.6 11.12Z" fill="#505050"/>
</svg>
