<svg width="50" height="50" viewBox="0 0 50 50" fill="none" xmlns="http://www.w3.org/2000/svg">
<path d="M47.88 47.38H42.66V19.22C42.66 18.81 42.32 18.47 41.91 18.47H36.25C35.84 18.47 35.5 18.81 35.5 19.22V47.37H32.44V27.33C32.44 26.92 32.1 26.58 31.69 26.58H26.03C25.62 26.58 25.28 26.92 25.28 27.33V47.38H22.22V37.16C22.22 36.75 21.88 36.41 21.47 36.41H15.81C15.4 36.41 15.06 36.75 15.06 37.16V47.37H12V42.54C12 42.13 11.66 41.79 11.25 41.79H5.58C5.17 41.79 4.83 42.13 4.83 42.54V47.37H2.63V2.13001C2.63 1.72001 2.29 1.38 1.88 1.38C1.47 1.38 1.13 1.71001 1.13 2.13001V48.13C1.13 48.54 1.47 48.88 1.88 48.88H47.88C48.29 48.88 48.63 48.54 48.63 48.13C48.63 47.72 48.29 47.38 47.88 47.38ZM6.33 47.38V43.3H10.49V47.38H6.33V47.38ZM16.56 47.38V37.92H20.72V47.38H16.56ZM26.78 47.38V28.08H30.94V47.38H26.78ZM37 47.38V19.98H41.16V47.38H37Z" fill="#505050"/>
<path d="M5.82 34.18H7.66V35.35C7.66 35.76 8 36.1 8.41 36.1C8.82 36.1 9.16 35.76 9.16 35.35V34.18H11C11.41 34.18 11.75 33.84 11.75 33.43V25.16C11.75 24.75 11.41 24.41 11 24.41H9.16V23.24C9.16 22.83 8.82 22.49 8.41 22.49C8 22.49 7.66 22.83 7.66 23.24V24.41H5.82C5.41 24.41 5.07 24.75 5.07 25.16V33.43C5.07 33.84 5.41 34.18 5.82 34.18ZM6.57 25.9H10.25V32.67H6.57V25.9Z" fill="#505050"/>
<path d="M16.05 29.42H17.89V30.59C17.89 31 18.23 31.34 18.64 31.34C19.05 31.34 19.39 31 19.39 30.59V29.42H21.23C21.64 29.42 21.98 29.08 21.98 28.67V20.4C21.98 19.99 21.64 19.65 21.23 19.65H19.39V18.48C19.39 18.07 19.05 17.73 18.64 17.73C18.23 17.73 17.89 18.07 17.89 18.48V19.65H16.05C15.64 19.65 15.3 19.99 15.3 20.4V28.67C15.3 29.08 15.63 29.42 16.05 29.42ZM16.8 21.15H20.48V27.92H16.8V21.15Z" fill="#505050"/>
<path d="M26.03 21.5H27.87V22.67C27.87 23.08 28.21 23.42 28.62 23.42C29.03 23.42 29.37 23.08 29.37 22.67V21.5H31.21C31.62 21.5 31.96 21.16 31.96 20.75V12.48C31.96 12.07 31.62 11.73 31.21 11.73H29.37V10.56C29.37 10.15 29.03 9.81 28.62 9.81C28.21 9.81 27.87 10.15 27.87 10.56V11.73H26.03C25.62 11.73 25.28 12.07 25.28 12.48V20.75C25.28 21.17 25.61 21.5 26.03 21.5ZM26.78 13.23H30.46V20H26.78V13.23Z" fill="#505050"/>
<path d="M36.49 13.07H38.33V14.24C38.33 14.65 38.67 14.99 39.08 14.99C39.49 14.99 39.83 14.65 39.83 14.24V13.07H41.67C42.08 13.07 42.42 12.73 42.42 12.32V4.04C42.42 3.63 42.08 3.29 41.67 3.29H39.83V2.13001C39.83 1.72001 39.49 1.38 39.08 1.38C38.67 1.38 38.33 1.72001 38.33 2.13001V3.3H36.49C36.08 3.3 35.74 3.64 35.74 4.05V12.32C35.74 12.73 36.07 13.07 36.49 13.07ZM37.24 4.79H40.92V11.56H37.24V4.79Z" fill="#505050"/>
</svg>
