<svg width="50" height="50" viewBox="0 0 50 50" fill="none" xmlns="http://www.w3.org/2000/svg">
<path d="M36.31 23.32V4.43C36.31 2.75 34.94 1.37 33.25 1.37H4.18C2.5 1.37 1.13 2.75 1.13 4.43V38.51C1.13 38.93 1.46 39.26 1.88 39.26C2.29 39.26 2.63 38.93 2.63 38.51C2.63 38.51 2.63 38.5 2.62 38.5V4.43C2.63 3.56 3.31 2.86999 4.18 2.86999H31.42C31.44 2.86999 31.46 2.87999 31.49 2.86999H33.25C34.11 2.86999 34.81 3.57 34.81 4.43V23.34C34.31 23.38 33.82 23.44 33.34 23.54V17.05C33.34 16.64 33 16.3 32.59 16.3H25.61C25.2 16.3 24.86 16.64 24.86 17.05V24.03C24.86 24.44 25.2 24.78 25.61 24.78H29.87C25.81 26.93 23.04 31.19 23.04 36.09C23.04 40.98 25.8 45.23 29.83 47.38H4.18C3.31 47.38 2.63 46.7 2.62 45.83V42.52C2.62 42.11 2.29 41.77 1.88 41.77C1.46 41.77 1.13 42.11 1.13 42.52V45.83C1.13 47.51 2.5 48.88 4.18 48.88H33.25C33.44 48.88 33.61 48.81 33.74 48.69C34.42 48.8 35.12 48.88 35.84 48.88C42.89 48.88 48.63 43.14 48.63 36.09C48.62 29.19 43.14 23.57 36.31 23.32ZM26.36 17.8H31.84V23.28H26.36V17.8ZM35.83 47.37C29.6 47.37 24.54 42.31 24.54 36.08C24.54 29.85 29.6 24.79 35.83 24.79C42.06 24.79 47.12 29.85 47.12 36.08C47.12 42.31 42.06 47.37 35.83 47.37Z" fill="#505050"/>
<path d="M35.83 26.29C30.43 26.29 26.04 30.68 26.04 36.08C26.04 41.48 30.43 45.87 35.83 45.87C41.23 45.87 45.62 41.48 45.62 36.08C45.62 30.68 41.23 26.29 35.83 26.29ZM35.83 44.37C31.26 44.37 27.54 40.65 27.54 36.08C27.54 31.51 31.26 27.79 35.83 27.79C40.4 27.79 44.12 31.51 44.12 36.08C44.12 40.65 40.4 44.37 35.83 44.37Z" fill="#505050"/>
<path d="M35.83 32.26C36.68 32.26 37.37 32.95 37.37 33.79C37.37 34.2 37.71 34.54 38.12 34.54C38.53 34.54 38.87 34.2 38.87 33.79C38.87 32.38 37.89 31.2 36.58 30.86V30.33C36.58 29.92 36.24 29.58 35.83 29.58C35.42 29.58 35.08 29.92 35.08 30.33V30.86C33.77 31.2 32.8 32.38 32.8 33.79C32.8 35.46 34.16 36.83 35.83 36.83C36.68 36.83 37.37 37.52 37.37 38.36C37.37 39.21 36.68 39.9 35.83 39.9C34.98 39.9 34.3 39.21 34.3 38.36C34.3 37.95 33.96 37.61 33.55 37.61C33.14 37.61 32.8 37.95 32.8 38.36C32.8 39.77 33.77 40.95 35.08 41.29V41.82C35.08 42.23 35.42 42.57 35.83 42.57C36.24 42.57 36.58 42.23 36.58 41.82V41.3C37.89 40.96 38.87 39.78 38.87 38.37C38.87 36.7 37.51 35.34 35.83 35.34C34.98 35.34 34.3 34.65 34.3 33.8C34.3 32.95 34.98 32.26 35.83 32.26Z" fill="#505050"/>
<path d="M1.88 41.26C2.29 41.26 2.62 40.92 2.62 40.51C2.62 40.1 2.29 39.76 1.88 39.76C1.46 39.76 1.13 40.1 1.13 40.51C1.13 40.92 1.46 41.26 1.88 41.26Z" fill="#505050"/>
<path d="M33.34 13.25V5.08997C33.34 4.67997 33 4.33997 32.59 4.33997H4.84C4.43 4.33997 4.09 4.67997 4.09 5.08997V13.25C4.09 13.66 4.43 14 4.84 14H32.59C33 14 33.34 13.66 33.34 13.25ZM31.84 12.5H5.59V5.83997H31.84V12.5Z" fill="#505050"/>
<path d="M4.09 24.03C4.09 24.44 4.43 24.78 4.84 24.78H11.82C12.23 24.78 12.57 24.44 12.57 24.03V17.05C12.57 16.64 12.23 16.3 11.82 16.3H4.84C4.43 16.3 4.09 16.64 4.09 17.05V24.03ZM5.59 17.8H11.07V23.28H5.59V17.8Z" fill="#505050"/>
<path d="M22.95 17.05C22.95 16.64 22.61 16.3 22.2 16.3H15.22C14.81 16.3 14.47 16.64 14.47 17.05V24.03C14.47 24.44 14.81 24.78 15.22 24.78H22.2C22.61 24.78 22.95 24.44 22.95 24.03V17.05ZM21.45 23.28H15.97V17.8H21.45V23.28Z" fill="#505050"/>
<path d="M4.09 33.83C4.09 34.24 4.43 34.58 4.84 34.58H11.82C12.23 34.58 12.57 34.24 12.57 33.83V26.85C12.57 26.44 12.23 26.1 11.82 26.1H4.84C4.43 26.1 4.09 26.44 4.09 26.85V33.83ZM5.59 27.6H11.07V33.08H5.59V27.6Z" fill="#505050"/>
<path d="M22.95 26.85C22.95 26.44 22.61 26.1 22.2 26.1H15.22C14.81 26.1 14.47 26.44 14.47 26.85V33.83C14.47 34.24 14.81 34.58 15.22 34.58H22.2C22.61 34.58 22.95 34.24 22.95 33.83V26.85ZM21.45 33.08H15.97V27.6H21.45V33.08Z" fill="#505050"/>
<path d="M4.09 43.63C4.09 44.04 4.43 44.38 4.84 44.38H11.82C12.23 44.38 12.57 44.04 12.57 43.63V36.65C12.57 36.24 12.23 35.9 11.82 35.9H4.84C4.43 35.9 4.09 36.24 4.09 36.65V43.63ZM5.59 37.4H11.07V42.88H5.59V37.4Z" fill="#505050"/>
<path d="M22.2 35.9H15.22C14.81 35.9 14.47 36.24 14.47 36.65V43.63C14.47 44.04 14.81 44.38 15.22 44.38H22.2C22.61 44.38 22.95 44.04 22.95 43.63V36.65C22.95 36.23 22.62 35.9 22.2 35.9ZM21.45 42.88H15.97V37.4H21.45V42.88Z" fill="#505050"/>
</svg>
