<svg width="45" height="45" viewBox="0 0 45 45" fill="none" xmlns="http://www.w3.org/2000/svg">
<path d="M12.2864 42.3675C12.2625 42.3675 12.2386 42.3661 12.2147 42.3632L4.10625 41.5532C4.09641 41.5532 4.08657 41.5518 4.07672 41.5504L2.26969 41.369C2.24297 41.3676 2.21907 41.3634 2.19375 41.3578H2.19516C2.0475 41.3268 1.91813 41.2481 1.81969 41.1426C1.81969 41.1412 1.81969 41.1412 1.81969 41.1412C1.81969 41.1412 1.81969 41.1412 1.81828 41.1398C1.81828 41.1398 1.81828 41.1398 1.81688 41.1384C1.81688 41.1384 1.81688 41.1384 1.81547 41.137C1.81547 41.137 1.81547 41.137 1.81547 41.1356C1.76907 41.0836 1.72969 41.0245 1.70016 40.9598C1.70016 40.9584 1.70016 40.9584 1.70016 40.9584V40.957H1.69875C1.65375 40.8543 1.63125 40.7404 1.63969 40.6209L2.16985 32.4745C2.1811 32.3029 2.25563 32.1426 2.37516 32.0217L17.0888 17.4009C16.3519 13.6673 17.2223 9.81982 19.5033 6.79076C19.7395 6.47716 20.1797 6.42091 20.4877 6.65154C20.7984 6.88497 20.8603 7.32513 20.6269 7.63591C18.5161 10.4386 17.7567 14.0245 18.5428 17.4726C18.5963 17.7089 18.5245 17.9578 18.353 18.1279L3.555 32.8317L3.08672 40.0387L3.88688 40.1189L19.7409 24.2648C19.8745 24.1312 19.9463 23.954 19.9463 23.767C19.9463 23.58 19.8731 23.4042 19.7409 23.2706C19.4752 23.0048 19.0125 23.0048 18.7467 23.2706L5.99344 36.0225C5.71922 36.2967 5.27344 36.2967 4.99922 36.0225C4.725 35.7482 4.725 35.3025 4.99922 35.0283L17.7525 22.2764C18.5738 21.4551 19.9139 21.4551 20.7352 22.2764C21.1331 22.6729 21.3525 23.2017 21.3525 23.767C21.3525 24.3295 21.1331 24.8611 20.7352 25.2604L5.69532 40.2989L11.6634 40.8951L12.0839 37.1123C12.1022 36.9548 12.1725 36.8058 12.2864 36.6933L15.7669 33.2114C15.8991 33.0792 16.0777 33.0061 16.2647 33.0061H18.9563L25.6584 26.3039C25.8497 26.114 26.1253 26.0493 26.3798 26.1351C30.7167 27.5864 35.4164 26.4923 38.6395 23.2692C43.2984 18.6089 43.2984 11.0236 38.6395 6.36466C34.4531 2.17826 27.7355 1.70154 23.0175 5.25091C22.7053 5.48576 22.2652 5.42247 22.0331 5.11169C21.7997 4.80091 21.8616 4.36076 22.1723 4.12732C27.4528 0.157475 34.958 0.693257 39.6352 5.37044C44.8439 10.5792 44.8439 19.0533 39.6352 24.2648C36.1364 27.7636 31.0866 29.0278 26.3531 27.6018L19.748 34.207C19.6158 34.3392 19.4372 34.4123 19.2502 34.4123H16.5586L13.4592 37.5131L12.9895 41.7431C12.9445 42.1003 12.6394 42.3675 12.2864 42.3675ZM34.1606 15.757C32.9006 15.757 31.6406 15.2775 30.6802 14.3198C29.7506 13.3903 29.2388 12.1542 29.2388 10.8393C29.2388 9.5231 29.7506 8.28841 30.6802 7.35747C32.5997 5.44357 35.7216 5.44076 37.6411 7.35747C39.5578 9.277 39.5578 12.3989 37.6411 14.3184C36.682 15.2775 35.4206 15.757 34.1606 15.757ZM31.6744 13.3256C33.0455 14.6967 35.2772 14.6953 36.6469 13.3256C38.0166 11.9545 38.0166 9.72279 36.6469 8.3531C35.273 6.9806 33.0427 6.98201 31.6744 8.3531C30.3047 9.72279 30.3047 11.9545 31.6744 13.3256Z" fill="#263238"/>
<path d="M4.14844 41.5547C3.96844 41.5547 3.78844 41.4858 3.65063 41.3494C3.37641 41.0751 3.37641 40.6294 3.65063 40.3551L19.7409 24.2648C19.8745 24.1312 19.9463 23.9541 19.9463 23.767C19.9463 23.58 19.8731 23.4042 19.7409 23.2706C19.4667 22.9964 19.0209 22.9964 18.7467 23.2706L5.99344 36.0225C5.71922 36.2967 5.27344 36.2967 4.99922 36.0225C4.725 35.7483 4.725 35.3025 4.99922 35.0283L17.7525 22.2764C18.5738 21.4551 19.9139 21.4551 20.7352 22.2764C21.1331 22.673 21.3525 23.2017 21.3525 23.767C21.3525 24.3295 21.1331 24.8611 20.7352 25.2605L4.64625 41.348C4.50844 41.4858 4.32844 41.5547 4.14844 41.5547Z" fill="#263238"/>
<path d="M20.3906 2.8125C20.779 2.8125 21.0938 2.4977 21.0938 2.10938C21.0938 1.72105 20.779 1.40625 20.3906 1.40625C20.0023 1.40625 19.6875 1.72105 19.6875 2.10938C19.6875 2.4977 20.0023 2.8125 20.3906 2.8125Z" fill="#263238"/>
<path d="M42.8906 25.3125C43.279 25.3125 43.5938 24.9977 43.5938 24.6094C43.5938 24.221 43.279 23.9062 42.8906 23.9062C42.5023 23.9062 42.1875 24.221 42.1875 24.6094C42.1875 24.9977 42.5023 25.3125 42.8906 25.3125Z" fill="#263238"/>
<path d="M30.2344 31.6407C29.4384 31.6407 28.6341 31.5844 27.8494 31.4733C27.4655 31.4185 27.1969 31.0627 27.2517 30.6788C27.3066 30.2963 27.6581 30.0375 28.0463 30.0811C32.497 30.7083 37.1025 29.3428 40.4789 26.356C40.7672 26.0986 41.2102 26.1239 41.4717 26.4178C41.7291 26.7089 41.7009 27.1519 41.4098 27.4107C38.3245 30.1388 34.3561 31.6407 30.2344 31.6407Z" fill="#263238"/>
<path d="M14.2214 17.7567C13.8769 17.7567 13.5759 17.5022 13.5267 17.152C13.4156 16.3673 13.3594 15.563 13.3594 14.7656C13.3594 10.53 14.9344 6.48001 17.7933 3.36516C18.0577 3.07969 18.5034 3.06141 18.7861 3.32298C19.0716 3.58594 19.0913 4.03032 18.8283 4.31579C16.2084 7.17188 14.7656 10.883 14.7656 14.7656C14.7656 15.4983 14.8177 16.2338 14.9189 16.9552C14.9738 17.3391 14.7066 17.6949 14.3213 17.7497C14.2875 17.7539 14.2552 17.7567 14.2214 17.7567Z" fill="#263238"/>
</svg>
