<svg width="50" height="50" viewBox="0 0 50 50" fill="none" xmlns="http://www.w3.org/2000/svg">
<path d="M44.72 39.39H41.47V36.46C41.47 36.05 41.13 35.71 40.72 35.71H24.58V33.53H26.04C26.24 33.53 26.43 33.45 26.57 33.31C26.71 33.17 26.79 32.98 26.79 32.78V30.39C28.51 30.05 30.13 29.38 31.59 28.4L33.28 30.09C33.56 30.37 34.06 30.37 34.34 30.09L36.95 27.47C37.1 27.32 37.17 27.14 37.17 26.94C37.17 26.74 37.1 26.55 36.95 26.41L35.27 24.73C36.25 23.26 36.92 21.65 37.26 19.92H39.64C39.84 19.92 40.03 19.84 40.17 19.7C40.31 19.56 40.39 19.37 40.39 19.17V15.47C40.39 15.27 40.31 15.08 40.17 14.94C40.03 14.79 39.84 14.72 39.64 14.72H37.26C36.92 13 36.25 11.38 35.27 9.90999L36.95 8.22998C37.1 8.08998 37.17 7.89999 37.17 7.69999C37.17 7.49999 37.1 7.30999 36.95 7.16999L34.34 4.54999C34.06 4.26999 33.56 4.26999 33.28 4.54999L31.59 6.23998C30.13 5.24998 28.51 4.57998 26.79 4.23998V1.85999C26.79 1.65999 26.71 1.46999 26.57 1.32999C26.43 1.18999 26.24 1.10999 26.04 1.10999H22.33C22.13 1.10999 21.94 1.18999 21.8 1.32999C21.66 1.46999 21.58 1.65999 21.58 1.85999V4.23998C19.86 4.57998 18.25 5.24998 16.78 6.23998L15.1 4.54999C14.81 4.26999 14.32 4.26999 14.04 4.54999L11.42 7.16999C11.28 7.30999 11.2 7.49999 11.2 7.69999C11.2 7.89999 11.28 8.08998 11.42 8.22998L13.1 9.90999C12.12 11.38 11.45 13 11.11 14.72H8.72C8.53 14.72 8.33 14.8 8.19 14.94C8.05 15.08 7.97 15.27 7.97 15.47V19.17C7.97 19.37 8.05 19.56 8.19 19.7C8.33 19.84 8.53 19.92 8.72 19.92H11.1C11.17 20.26 11.24 20.59 11.33 20.9C11.44 21.29 11.86 21.53 12.26 21.43C12.65 21.31 12.89 20.9 12.78 20.5C12.64 20.02 12.54 19.54 12.47 19.06C12.42 18.7 12.1 18.42 11.73 18.42H9.47V16.22H11.73C12.11 16.22 12.42 15.95 12.47 15.57C12.75 13.67 13.51 11.84 14.67 10.27C14.89 9.97999 14.86 9.55999 14.6 9.29999L13 7.69999L14.56 6.13999L16.16 7.73998C16.41 7.99998 16.84 8.02999 17.14 7.81999C18.69 6.65999 20.52 5.89999 22.43 5.61999C22.8 5.55999 23.07 5.23999 23.07 4.86999V2.60999H25.28V4.86999C25.28 5.23999 25.56 5.55999 25.92 5.61999C27.83 5.89999 29.66 6.65999 31.22 7.81999C31.51 8.02999 31.94 7.99998 32.2 7.73998L33.8 6.13999L35.35 7.69999L33.76 9.29999C33.5 9.55999 33.46 9.97999 33.68 10.27C34.81 11.8 35.57 13.59 35.86 15.45C35.86 15.49 35.87 15.53 35.88 15.57C35.93 15.95 36.24 16.22 36.62 16.22H38.88V18.42H36.62C36.25 18.42 35.93 18.7 35.88 19.06C35.6 20.97 34.84 22.8 33.68 24.36C33.46 24.66 33.5 25.08 33.76 25.34L35.35 26.94L33.8 28.5L32.2 26.9C31.94 26.64 31.51 26.61 31.22 26.82C29.66 27.98 27.83 28.74 25.92 29.02C25.56 29.07 25.28 29.39 25.28 29.76V32.03H23.84C23.83 32.03 23.83 32.03 23.82 32.03C23.81 32.03 23.81 32.03 23.8 32.03H23.07V29.76C23.07 29.39 22.8 29.07 22.43 29.02C20.52 28.74 18.69 27.98 17.14 26.82C16.84 26.61 16.41 26.64 16.16 26.9L14.56 28.5L13 26.94L14.6 25.34C14.86 25.08 14.89 24.66 14.67 24.36C14.57 24.23 14.45 24.07 14.34 23.9C14.12 23.57 13.64 23.47 13.31 23.7C13.14 23.81 13.02 23.98 12.99 24.18C12.95 24.37 12.98 24.56 13.09 24.72L11.41 26.41C11.11 26.7 11.11 27.17 11.41 27.47L14.03 30.09C14.31 30.37 14.8 30.37 15.09 30.09L16.77 28.4C18.23 29.38 19.85 30.06 21.57 30.4V32.78C21.57 32.97 21.65 33.17 21.79 33.31C21.93 33.45 22.13 33.53 22.32 33.53H23.07V35.71H6.93C6.52 35.71 6.18 36.05 6.18 36.46V39.39H2.93C2.52 39.39 2.18 39.73 2.18 40.14V48.14C2.18 48.55 2.52 48.89 2.93 48.89H10.93C11.34 48.89 11.68 48.55 11.68 48.14V40.14C11.68 39.73 11.34 39.39 10.93 39.39H7.68V37.21H23.07V39.39H19.82C19.41 39.39 19.07 39.73 19.07 40.14V48.14C19.07 48.55 19.41 48.89 19.82 48.89H27.82C28.23 48.89 28.57 48.55 28.57 48.14V40.14C28.57 39.73 28.23 39.39 27.82 39.39H24.57V37.21H39.96V39.39H36.71C36.3 39.39 35.96 39.73 35.96 40.14V48.14C35.96 48.55 36.3 48.89 36.71 48.89H44.71C45.12 48.89 45.46 48.55 45.46 48.14V40.14C45.47 39.73 45.14 39.39 44.72 39.39ZM10.18 47.39H3.68V40.89H10.18V47.39ZM27.07 47.39H20.57V40.89H27.07V47.39ZM43.97 47.39H37.47V40.89H43.97V47.39Z" fill="#505050"/>
<path d="M12.74 23.33C12.85 23.33 12.96 23.31 13.06 23.26C13.43 23.09 13.6 22.64 13.43 22.26C13.42 22.26 13.42 22.26 13.42 22.25C13.25 21.9 12.79 21.73 12.43 21.9C12.25 21.98 12.11 22.13 12.04 22.32C11.97 22.5 11.98 22.7 12.06 22.88C12.06 22.89 12.06 22.89 12.06 22.89C12.18 23.16 12.46 23.33 12.74 23.33Z" fill="#505050"/>
<path d="M24.18 25.42C28.65 25.42 32.29 21.78 32.29 17.32C32.29 12.86 28.65 9.20996 24.18 9.20996C19.71 9.20996 16.07 12.85 16.07 17.32C16.07 21.79 19.71 25.42 24.18 25.42ZM24.18 10.71C27.82 10.71 30.79 13.67 30.79 17.32C30.79 20.97 27.83 23.92 24.18 23.92C20.53 23.92 17.57 20.96 17.57 17.32C17.57 13.68 20.54 10.71 24.18 10.71Z" fill="#505050"/>
</svg>
