<svg width="50" height="50" viewBox="0 0 50 50" fill="none" xmlns="http://www.w3.org/2000/svg">
<path d="M5.19 41.06C5.19 41.47 5.53 41.81 5.94 41.81H11.88C12.29 41.81 12.63 41.47 12.63 41.06V35.12C12.63 34.71 12.29 34.37 11.88 34.37H5.94C5.53 34.37 5.19 34.71 5.19 35.12V41.06ZM6.69 35.87H11.13V40.31H6.69V35.87Z" fill="#505050"/>
<path d="M29.55 35.99C29.55 35.58 29.21 35.24 28.8 35.24H15.34C14.93 35.24 14.59 35.58 14.59 35.99C14.59 36.4 14.93 36.74 15.34 36.74H28.8C29.22 36.74 29.55 36.4 29.55 35.99Z" fill="#505050"/>
<path d="M15.34 38.58C14.93 38.58 14.59 38.92 14.59 39.33C14.59 39.74 14.93 40.08 15.34 40.08H21.14C21.55 40.08 21.89 39.74 21.89 39.33C21.89 38.92 21.55 38.58 21.14 38.58H15.34Z" fill="#505050"/>
<path d="M33.06 44.71C33.4742 44.71 33.81 44.3742 33.81 43.96C33.81 43.5458 33.4742 43.21 33.06 43.21C32.6458 43.21 32.31 43.5458 32.31 43.96C32.31 44.3742 32.6458 44.71 33.06 44.71Z" fill="#505050"/>
<path d="M33.06 5.6H26.31L25.97 3.71C25.9 3.36 25.59 3.09 25.23 3.09H20.49C20.16 1.93 19.08 1.12 17.87 1.12C16.65 1.12 15.58 1.93 15.25 3.09H10.51C10.14 3.09 9.83 3.36 9.77 3.71L9.43 5.6H2.68C2.48 5.6 2.29 5.68 2.15 5.82C2.01 5.96 1.93 6.15 1.93 6.35V47.87C1.93 48.07 2.01 48.26 2.15 48.4C2.29 48.54 2.48 48.62 2.68 48.62H33.06C33.26 48.62 33.45 48.54 33.59 48.4C33.73 48.26 33.81 48.07 33.81 47.87V45.96C33.81 45.55 33.47 45.21 33.06 45.21C32.64 45.21 32.31 45.55 32.31 45.96V47.12H3.43V7.1H9.17L8.99 8.09C8.95 8.31 9.01 8.53 9.16 8.7C9.3 8.87 9.51 8.97 9.73 8.97H26.01C26.23 8.97 26.44 8.87 26.58 8.7C26.72 8.53 26.78 8.31 26.75 8.09L26.57 7.1H32.31V41.96C32.31 42.38 32.64 42.71 33.06 42.71C33.47 42.71 33.81 42.38 33.81 41.96V6.35C33.81 6.15 33.73 5.96 33.59 5.82C33.44 5.68 33.26 5.6 33.06 5.6ZM10.62 7.47L11.14 4.59H15.89C16.1 4.59 16.28 4.52 16.42 4.37C16.57 4.23 16.64 4.04999 16.64 3.83999C16.64 3.16999 17.19 2.61999 17.87 2.61999C18.54 2.61999 19.09 3.16999 19.09 3.83999C19.09 4.03999 19.17 4.24 19.31 4.37C19.45 4.51 19.64 4.59 19.84 4.59H24.6L25.11 7.47H10.62Z" fill="#505050"/>
<path d="M5.94 21.25H11.87C12.07 21.25 12.26 21.17 12.4 21.03C12.54 20.89 12.62 20.7 12.62 20.5V14.56C12.62 14.36 12.54 14.17 12.4 14.03C12.26 13.89 12.07 13.81 11.87 13.81H5.94C5.74 13.81 5.55 13.89 5.41 14.03C5.27 14.17 5.19 14.36 5.19 14.56V20.5C5.19 20.69 5.27 20.89 5.41 21.03C5.55 21.17 5.74 21.25 5.94 21.25ZM6.68 15.31H11.12V19.75H6.68V15.31Z" fill="#505050"/>
<path d="M15.34 16.18H28.8C29.22 16.18 29.55 15.84 29.55 15.43C29.55 15.01 29.22 14.68 28.8 14.68H15.34C14.93 14.68 14.59 15.01 14.59 15.43C14.59 15.84 14.93 16.18 15.34 16.18Z" fill="#505050"/>
<path d="M15.34 19.52H21.15C21.56 19.52 21.9 19.18 21.9 18.77C21.9 18.35 21.56 18.02 21.15 18.02H15.34C14.93 18.02 14.59 18.35 14.59 18.77C14.59 19.18 14.93 19.52 15.34 19.52Z" fill="#505050"/>
<path d="M5.19 30.78C5.19 30.98 5.27 31.17 5.41 31.31C5.54 31.45 5.74 31.53 5.94 31.53H11.87C12.07 31.53 12.26 31.45 12.4 31.31C12.54 31.17 12.62 30.98 12.62 30.78V24.84C12.62 24.64 12.54 24.45 12.4 24.31C12.26 24.17 12.07 24.09 11.87 24.09H5.94C5.74 24.09 5.54 24.17 5.41 24.31C5.27 24.45 5.19 24.64 5.19 24.84V30.78ZM6.68 25.59H11.12V30.03H6.68V25.59Z" fill="#505050"/>
<path d="M15.34 26.46H28.8C29.22 26.46 29.55 26.12 29.55 25.71C29.55 25.29 29.22 24.96 28.8 24.96H15.34C14.93 24.96 14.59 25.29 14.59 25.71C14.59 26.12 14.93 26.46 15.34 26.46Z" fill="#505050"/>
<path d="M15.34 29.8H21.15C21.56 29.8 21.9 29.46 21.9 29.05C21.9 28.63 21.56 28.3 21.15 28.3H15.34C14.93 28.3 14.59 28.63 14.59 29.05C14.59 29.46 14.93 29.8 15.34 29.8Z" fill="#505050"/>
<path d="M44.39 31.87C44.8042 31.87 45.14 31.5342 45.14 31.12C45.14 30.7058 44.8042 30.37 44.39 30.37C43.9758 30.37 43.64 30.7058 43.64 31.12C43.64 31.5342 43.9758 31.87 44.39 31.87Z" fill="#505050"/>
<path d="M48.47 12.78C48.33 12.64 48.14 12.56 47.94 12.56H45.14V10.38C45.14 8.22999 43.4 6.48999 41.25 6.48999C39.11 6.48999 37.36 8.22999 37.36 10.38V36.23L37.37 36.28C37.38 36.37 37.4 36.46 37.43 36.54V36.56L40.57 42.85C40.7 43.11 40.96 43.26 41.24 43.26C41.53 43.26 41.79 43.11 41.91 42.85L45.06 36.55V36.53C45.1 36.44 45.13 36.34 45.13 36.23V33.13C45.13 32.71 44.8 32.38 44.38 32.38C43.97 32.38 43.63 32.71 43.63 33.13V35.48H38.85V14.06H43.63V29.12C43.63 29.53 43.97 29.87 44.38 29.87C44.8 29.87 45.13 29.53 45.13 29.12V14.06H47.18V25.55C47.18 25.97 47.52 26.3 47.93 26.3C48.34 26.3 48.68 25.97 48.68 25.55V13.31C48.69 13.11 48.61 12.92 48.47 12.78ZM41.25 40.83L39.32 36.97H43.17L41.25 40.83ZM38.86 12.56V10.38C38.87 9.05999 39.94 7.98999 41.25 7.98999C42.57 7.98999 43.64 9.05999 43.64 10.38V12.56H38.86Z" fill="#505050"/>
</svg>
