<svg width="50" height="50" viewBox="0 0 50 50" fill="none" xmlns="http://www.w3.org/2000/svg">
<path d="M2.4 14.97C2.82 14.97 3.16 14.64 3.16 14.22C3.16 13.81 2.82 13.47 2.4 13.47C1.99 13.47 1.66 13.81 1.66 14.22C1.66 14.64 1.99 14.97 2.4 14.97Z" fill="#505050"/>
<path d="M15.14 9.27002H27.06C27.47 9.27002 27.81 8.93002 27.81 8.52002C27.81 8.11002 27.47 7.77002 27.06 7.77002H15.14C14.73 7.77002 14.39 8.11002 14.39 8.52002C14.39 8.93002 14.73 9.27002 15.14 9.27002Z" fill="#505050"/>
<path d="M15.14 13.57H27.06C27.47 13.57 27.81 13.23 27.81 12.82C27.81 12.41 27.47 12.07 27.06 12.07H15.14C14.73 12.07 14.39 12.41 14.39 12.82C14.39 13.23 14.73 13.57 15.14 13.57Z" fill="#505050"/>
<path d="M15.14 17.86H27.06C27.47 17.86 27.81 17.52 27.81 17.11C27.81 16.7 27.47 16.36 27.06 16.36H15.14C14.73 16.36 14.39 16.7 14.39 17.11C14.39 17.52 14.73 17.86 15.14 17.86Z" fill="#505050"/>
<path d="M5.36 21.41C5.36 21.82 5.7 22.16 6.11 22.16H27.07C27.48 22.16 27.82 21.82 27.82 21.41C27.82 21 27.48 20.66 27.07 20.66H6.11C5.69 20.66 5.36 20.99 5.36 21.41Z" fill="#505050"/>
<path d="M6.11 26.45H27.07C27.48 26.45 27.82 26.11 27.82 25.7C27.82 25.29 27.48 24.95 27.07 24.95H6.11C5.7 24.95 5.36 25.29 5.36 25.7C5.36 26.11 5.69 26.45 6.11 26.45Z" fill="#505050"/>
<path d="M6.11 30.75H20.9C21.31 30.75 21.65 30.41 21.65 30C21.65 29.59 21.31 29.25 20.9 29.25H6.11C5.7 29.25 5.36 29.59 5.36 30C5.36 30.41 5.69 30.75 6.11 30.75Z" fill="#505050"/>
<path d="M6.11 34.69H20.9C21.31 34.69 21.65 34.35 21.65 33.94C21.65 33.53 21.31 33.19 20.9 33.19H6.11C5.7 33.19 5.36 33.53 5.36 33.94C5.36 34.35 5.69 34.69 6.11 34.69Z" fill="#505050"/>
<path d="M8.92 15.07C8.33 15.07 7.85 14.59 7.85 14C7.85 13.59 7.51 13.25 7.1 13.25C6.69 13.25 6.35 13.59 6.35 14C6.35 15.15 7.12 16.12 8.17 16.45V16.76C8.17 17.17 8.51 17.51 8.92 17.51C9.33 17.51 9.67 17.17 9.67 16.76V16.45C10.72 16.13 11.49 15.16 11.49 14C11.49 12.58 10.34 11.43 8.92 11.43C8.33 11.43 7.85 10.95 7.85 10.36C7.85 9.76998 8.33 9.28998 8.92 9.28998C9.51 9.28998 9.99 9.76998 9.99 10.36C9.99 10.77 10.33 11.11 10.74 11.11C11.15 11.11 11.49 10.77 11.49 10.36C11.49 9.20998 10.72 8.23998 9.67 7.90998V7.59998C9.67 7.18998 9.33 6.84998 8.92 6.84998C8.51 6.84998 8.17 7.18998 8.17 7.59998V7.90998C7.12 8.23998 6.35 9.19998 6.35 10.36C6.35 11.78 7.5 12.93 8.92 12.93C9.51 12.93 9.99 13.41 9.99 14C9.99 14.59 9.51 15.07 8.92 15.07Z" fill="#505050"/>
<path d="M46.27 34.68H44.69C44.44 33.51 43.98 32.39 43.33 31.39L44.45 30.27C44.74 29.98 44.74 29.5 44.45 29.21L42.53 27.29C42.39 27.15 42.2 27.07 42 27.07C41.8 27.07 41.61 27.15 41.47 27.29L40.35 28.41C39.34 27.76 38.22 27.29 37.06 27.04V25.46C37.06 25.05 36.72 24.71 36.31 24.71H33.59C33.18 24.71 32.84 25.05 32.84 25.46V27.04C32.39 27.14 31.96 27.27 31.53 27.43V2.12C31.53 1.93 31.45 1.74 31.31 1.59C31.17 1.45 30.98 1.38 30.78 1.38H2.4C2.21 1.38 2.01 1.45 1.88 1.59C1.74 1.73 1.66 1.93 1.66 2.12V12.22C1.66 12.64 1.99 12.97 2.4 12.97C2.82 12.97 3.16 12.64 3.16 12.22V2.87H30.02V28.13C29.86 28.22 29.7 28.31 29.54 28.41L28.42 27.29C28.14 27.01 27.64 27.01 27.36 27.29L25.44 29.21C25.3 29.35 25.22 29.54 25.22 29.74C25.22 29.94 25.3 30.13 25.44 30.27L26.56 31.39C25.91 32.4 25.44 33.52 25.19 34.68H23.61C23.2 34.68 22.86 35.02 22.86 35.43V38.15C22.86 38.56 23.2 38.9 23.61 38.9H25.19C25.23 39.1 25.29 39.29 25.35 39.49H3.15L3.16 16.22C3.16 15.81 2.82 15.47 2.4 15.47C1.99 15.47 1.66 15.81 1.66 16.22V40.24C1.66 40.43 1.74 40.63 1.88 40.77C2.01 40.91 2.21 40.99 2.4 40.99H25.91C26.1 41.4 26.31 41.81 26.56 42.2L25.44 43.32C25.3 43.46 25.22 43.65 25.22 43.85C25.22 44.05 25.3 44.24 25.44 44.38L27.36 46.3C27.5 46.44 27.69 46.52 27.89 46.52C28.09 46.52 28.28 46.44 28.42 46.3L29.54 45.18C30.55 45.83 31.67 46.3 32.83 46.55V48.13C32.83 48.54 33.17 48.88 33.58 48.88H36.3C36.71 48.88 37.05 48.54 37.05 48.13V46.55C38.22 46.3 39.34 45.83 40.34 45.18L41.46 46.3C41.6 46.44 41.79 46.52 41.99 46.52C42.19 46.52 42.38 46.44 42.52 46.3L44.44 44.38C44.73 44.09 44.73 43.61 44.44 43.32L43.32 42.2C43.97 41.19 44.43 40.07 44.68 38.91H46.26C46.67 38.91 47.01 38.57 47.01 38.16V35.44C47.02 35.02 46.69 34.68 46.27 34.68ZM45.52 37.4H44.06C43.69 37.4 43.37 37.67 43.32 38.04C43.12 39.41 42.58 40.72 41.75 41.83C41.53 42.13 41.56 42.54 41.82 42.81L42.85 43.84L42 44.7L40.97 43.67C40.71 43.41 40.29 43.38 39.99 43.6C38.87 44.43 37.56 44.97 36.2 45.17C35.83 45.22 35.56 45.54 35.56 45.91V47.37H34.34V45.91C34.34 45.54 34.07 45.22 33.7 45.17C32.34 44.97 31.03 44.43 29.91 43.6C29.61 43.38 29.2 43.41 28.93 43.67L27.9 44.7L27.04 43.84L28.07 42.81C28.33 42.55 28.36 42.13 28.14 41.83C27.31 40.71 26.77 39.4 26.57 38.04C26.52 37.67 26.2 37.4 25.83 37.4H24.37V36.18H25.83C26.2 36.18 26.52 35.91 26.57 35.54C26.77 34.18 27.31 32.86 28.14 31.75C28.36 31.45 28.33 31.04 28.07 30.77L27.04 29.74L27.9 28.88L28.93 29.91C29.19 30.17 29.61 30.2 29.91 29.98C31.03 29.15 32.34 28.61 33.7 28.41C34.07 28.36 34.34 28.04 34.34 27.67V26.21H35.56V27.67C35.56 28.04 35.83 28.36 36.2 28.41C37.57 28.61 38.88 29.15 39.99 29.98C40.29 30.2 40.7 30.17 40.97 29.91L42 28.88L42.86 29.74L41.83 30.77C41.57 31.03 41.54 31.45 41.76 31.75C42.59 32.87 43.13 34.18 43.33 35.54C43.38 35.91 43.7 36.18 44.07 36.18H45.53V37.4H45.52Z" fill="#505050"/>
<path d="M34.94 32C32.3 32 30.15 34.15 30.15 36.79C30.15 39.43 32.3 41.58 34.94 41.58C37.58 41.58 39.73 39.43 39.73 36.79C39.73 34.15 37.59 32 34.94 32ZM34.94 40.08C33.12 40.08 31.65 38.6 31.65 36.79C31.65 34.98 33.13 33.5 34.94 33.5C36.75 33.5 38.23 34.98 38.23 36.79C38.23 38.6 36.76 40.08 34.94 40.08Z" fill="#505050"/>
</svg>
