<svg width="47" height="47" viewBox="0 0 47 47" fill="none" xmlns="http://www.w3.org/2000/svg">
<path fill-rule="evenodd" clip-rule="evenodd" d="M38.4504 8.88205C34.5944 5.02168 29.4667 2.89482 24.0033 2.89258C12.7464 2.89258 3.58438 12.0538 3.57999 23.3142C3.57841 26.9139 4.51886 30.4273 6.30616 33.5244L3.40871 44.1075L14.2354 41.2676C17.2184 42.8946 20.577 43.7522 23.9952 43.7534H24.0035C24.0041 43.7534 24.003 43.7534 24.0036 43.7534C35.2594 43.7534 44.422 34.5912 44.4267 23.3306C44.4287 17.8734 42.3063 12.7422 38.4504 8.88205ZM24.0034 40.3042H23.9965C20.9507 40.3031 17.9631 39.4846 15.3568 37.9381L14.737 37.5703L8.31232 39.2555L10.0272 32.9915L9.62359 32.3492C7.92442 29.6466 7.027 26.5228 7.02832 23.3154C7.03197 13.9562 14.6471 6.34191 24.0103 6.34191C28.5442 6.34332 32.8063 8.11138 36.0113 11.32C39.2161 14.5285 40.9801 18.7935 40.9783 23.3292C40.9745 32.6891 33.3596 40.3042 24.0034 40.3042Z" fill="black"/>
<path fill-rule="evenodd" clip-rule="evenodd" d="M33.3145 27.5908C32.8042 27.3354 30.2953 26.1011 29.8275 25.9306C29.3598 25.7603 29.0196 25.6752 28.6794 26.186C28.3393 26.6968 27.3613 27.8463 27.0636 28.187C26.766 28.5274 26.4682 28.5702 25.958 28.3146C25.4477 28.0591 23.8034 27.5204 21.8543 25.7818C20.3372 24.4286 19.3131 22.7576 19.0153 22.2466C18.7177 21.7358 18.9836 21.4597 19.2391 21.2052C19.4687 20.9764 19.7495 20.6092 20.0047 20.3111C20.2598 20.0133 20.3448 19.8002 20.5149 19.4599C20.685 19.1193 20.6001 18.8212 20.4724 18.5659C20.3448 18.3105 19.3243 15.7987 18.8991 14.7767C18.4847 13.7818 18.0641 13.9166 17.7508 13.9008C17.4536 13.8859 17.1129 13.8829 16.7728 13.8829C16.4326 13.8829 15.8797 14.0106 15.412 14.5214C14.9443 15.0323 13.6259 16.267 13.6259 18.7785C13.6259 21.2904 15.4545 23.717 15.7096 24.0574C15.9647 24.3982 19.308 29.5524 24.4271 31.7628C25.6446 32.2887 26.5952 32.6026 27.3362 32.8377C28.5587 33.2262 29.6712 33.1713 30.5505 33.0399C31.5309 32.8934 33.5697 31.8055 33.9949 30.6136C34.4202 29.4215 34.4202 28.3996 34.2925 28.1869C34.165 27.9741 33.8248 27.8463 33.3145 27.5908Z" fill="black"/>
</svg>
