<svg width="425" height="265" viewBox="0 0 425 265" fill="none" xmlns="http://www.w3.org/2000/svg">
<path fill-rule="evenodd" clip-rule="evenodd" d="M82.3905 220.535C82.2938 164.665 82.4482 108.834 82.4482 52.9752C82.4482 50.9713 84.0873 49.334 86.0885 49.334L136.796 49.3289C145.693 49.5927 148.99 44.6917 150.173 39.2418L158.703 0L0.299464 4.13407L0 49.3789H28.1792L36.8733 220.468L82.3905 220.535Z" fill="#005C3D"/>
<path fill-rule="evenodd" clip-rule="evenodd" d="M214.727 87.915V220.468H259.971V87.915H214.727Z" fill="#005C3D"/>
<path fill-rule="evenodd" clip-rule="evenodd" d="M324.223 182.692V124.981C327.529 124.98 330.76 125.141 333.89 125.45C358.689 127.903 377.223 139.676 377.223 153.837C377.223 169.785 353.713 182.702 324.223 182.692ZM278.977 220.468H322.056C378.515 220.468 424.285 190.639 424.285 153.837C424.285 117.035 379.769 87.2117 324.223 87.2185V15.2298H278.977V220.468Z" fill="#005C3D"/>
<path fill-rule="evenodd" clip-rule="evenodd" d="M101.389 220.535H147.066V140.612C147.066 138.73 148.604 137.193 150.486 137.193L176.648 137.19L176.812 137.193H177.861C185.848 136.992 188.897 132.294 190.025 127.102L198.555 87.8598L147.066 92.2883V87.9472H101.389V220.535Z" fill="#005C3D"/>
<path fill-rule="evenodd" clip-rule="evenodd" d="M253.058 78.583C257.159 78.7671 258.676 75.3295 259.223 71.5085L263.152 43.9834L211.543 43.9868L215.472 71.5085C216.021 75.3312 217.538 78.7688 221.639 78.5813L253.058 78.583Z" fill="#005C3D"/>
<path d="M85.952 245.756H74.5813V256.771H87.6097V257.649H73.7041V233.997H87.6097V234.879H74.5813V244.879H85.952V245.756ZM102.358 253.346C102.358 252.414 101.963 251.566 101.165 250.801C100.367 250.036 98.9811 249.442 96.9951 249.005C94.9115 248.561 93.3981 247.99 92.4606 247.293C91.5232 246.594 91.0523 245.557 91.0523 244.182C91.0523 242.929 91.5843 241.874 92.643 241.021C93.7077 240.173 95.138 239.746 96.9349 239.746C98.8708 239.746 100.4 240.201 101.513 241.116C102.629 242.024 103.16 243.205 103.106 244.669L103.072 244.77H102.323C102.323 243.621 101.841 242.641 100.87 241.837C99.8999 241.027 98.5926 240.628 96.9349 240.628C95.2882 240.628 94.0411 240.982 93.1979 241.692C92.3554 242.403 91.9278 243.216 91.9278 244.148C91.9278 245.068 92.2892 245.856 93.0036 246.504C93.7187 247.153 95.138 247.725 97.2573 248.212C99.2195 248.668 100.705 249.288 101.72 250.069C102.728 250.857 103.233 251.954 103.233 253.362C103.233 254.737 102.673 255.853 101.548 256.706C100.422 257.559 98.9251 257.987 97.063 257.992C95.0167 257.987 93.415 257.532 92.2502 256.617C91.0854 255.702 90.5365 254.588 90.6154 253.279L90.6477 253.179H91.3637C91.4519 254.566 92.0441 255.569 93.1478 256.184C94.2515 256.806 95.5597 257.111 97.063 257.111C98.6867 257.111 99.9797 256.734 100.932 255.974C101.881 255.221 102.358 254.339 102.358 253.346ZM121.573 249.187C121.573 251.893 120.986 254.04 119.814 255.618C118.645 257.2 117.032 257.987 114.975 257.992C113.612 257.987 112.424 257.721 111.411 257.176C110.401 256.634 109.604 255.902 109.015 254.97V264.407H108.139V252.842C108.128 252.808 108.123 252.782 108.116 252.759C108.111 252.737 108.106 252.714 108.106 252.692V245.546C108.106 245.534 108.106 245.529 108.106 245.523C108.106 245.518 108.116 245.485 108.139 245.417V240.073H108.82L108.998 243.179C109.587 242.112 110.38 241.275 111.388 240.667C112.391 240.057 113.577 239.746 114.942 239.746C117.015 239.746 118.633 240.567 119.809 242.208C120.986 243.848 121.573 246.061 121.573 248.843V249.187ZM120.68 248.843C120.68 246.411 120.186 244.43 119.211 242.906C118.229 241.387 116.811 240.628 114.959 240.628C113.296 240.628 111.992 241.044 111.056 241.874C110.118 242.711 109.437 243.738 109.015 244.963V253.362C109.458 254.51 110.185 255.42 111.194 256.096C112.197 256.771 113.467 257.111 114.991 257.111C116.844 257.111 118.257 256.395 119.222 254.97C120.193 253.54 120.68 251.61 120.68 249.187V248.843ZM132.5 257.992C130.432 257.987 128.685 257.188 127.26 255.585C125.841 253.984 125.126 251.965 125.126 249.526V248.49C125.126 245.945 125.836 243.848 127.249 242.208C128.657 240.567 130.437 239.746 132.584 239.746C134.529 239.746 136.087 240.389 137.247 241.676C138.405 242.957 138.982 244.708 138.982 246.925V248.279H126.002V249.526C126.002 251.671 126.612 253.474 127.826 254.926C129.035 256.384 130.598 257.111 132.5 257.111C133.554 257.111 134.562 256.916 135.533 256.528C136.498 256.14 137.292 255.618 137.895 254.97L138.366 255.653C137.75 256.334 136.952 256.895 135.977 257.333C135 257.77 133.842 257.987 132.5 257.992ZM132.584 240.628C130.764 240.628 129.274 241.254 128.11 242.517C126.945 243.782 126.286 245.373 126.136 247.302L126.185 247.398H138.105V246.865C138.105 245.052 137.612 243.561 136.625 242.391C135.643 241.215 134.296 240.628 132.584 240.628ZM149.181 257.111C150.669 257.111 151.977 256.706 153.113 255.897C154.249 255.081 154.82 253.862 154.82 252.237H155.564L155.597 252.337C155.641 254.061 155.01 255.431 153.707 256.456C152.404 257.477 150.896 257.987 149.181 257.992C146.943 257.987 145.185 257.183 143.91 255.569C142.64 253.956 142.002 251.832 142.002 249.204V248.518C142.002 245.901 142.635 243.782 143.904 242.169C145.169 240.555 146.92 239.746 149.149 239.746C150.968 239.746 152.509 240.283 153.773 241.348C155.031 242.412 155.641 243.915 155.597 245.856L155.564 245.955H154.82C154.82 244.232 154.266 242.913 153.163 241.998C152.06 241.082 150.718 240.628 149.149 240.628C147.093 240.628 145.533 241.359 144.475 242.834C143.41 244.309 142.879 246.205 142.879 248.518V249.204C142.879 251.539 143.41 253.446 144.475 254.91C145.533 256.379 147.103 257.111 149.181 257.111ZM161.184 257.649H160.309V240.073H161.184V257.649ZM161.184 234.551H160.309V232.311H161.184V234.551ZM177.978 254.4C177.374 255.459 176.47 256.323 175.268 256.989C174.064 257.654 172.606 257.987 170.899 257.992C169.262 257.987 167.976 257.543 167.045 256.65C166.119 255.758 165.653 254.55 165.653 253.036C165.653 251.561 166.345 250.331 167.738 249.332C169.129 248.334 170.871 247.836 172.962 247.836H177.978V245.274C177.978 243.81 177.512 242.667 176.575 241.853C175.639 241.032 174.318 240.628 172.617 240.628C171.025 240.628 169.746 241.01 168.78 241.781C167.81 242.545 167.323 243.539 167.323 244.753L166.596 244.72L166.563 244.636C166.496 243.272 167.028 242.119 168.153 241.17C169.278 240.223 170.765 239.746 172.617 239.746C174.502 239.746 176.016 240.223 177.153 241.177C178.289 242.131 178.855 243.505 178.855 245.302V254.106C178.855 254.727 178.893 255.326 178.961 255.913C179.031 256.496 179.148 257.071 179.309 257.649H178.339C178.195 256.877 178.1 256.301 178.05 255.918C178.006 255.536 177.978 255.12 177.978 254.676V254.4ZM170.899 257.127C172.639 257.127 174.115 256.745 175.324 255.974C176.531 255.209 177.419 254.106 177.978 252.676V248.733H173.011C171.191 248.733 169.657 249.15 168.404 249.991C167.157 250.829 166.53 251.865 166.53 253.102C166.53 254.283 166.928 255.249 167.721 256.002C168.521 256.75 169.579 257.127 170.899 257.127ZM185.596 257.649H184.72V232.311H185.596V257.649ZM192.448 257.649H191.573V240.073H192.448V257.649ZM192.448 234.551H191.573V232.311H192.448V234.551ZM208.982 253.346C208.982 252.414 208.587 251.566 207.79 250.801C206.992 250.036 205.605 249.442 203.62 249.005C201.536 248.561 200.023 247.99 199.085 247.293C198.147 246.594 197.677 245.557 197.677 244.182C197.677 242.929 198.208 241.874 199.268 241.021C200.332 240.173 201.763 239.746 203.559 239.746C205.495 239.746 207.025 240.201 208.138 241.116C209.253 242.024 209.785 243.205 209.731 244.669L209.696 244.77H208.948C208.948 243.621 208.466 242.641 207.495 241.837C206.525 241.027 205.217 240.628 203.559 240.628C201.912 240.628 200.666 240.982 199.822 241.692C198.979 242.403 198.552 243.216 198.552 244.148C198.552 245.068 198.914 245.856 199.628 246.504C200.344 247.153 201.763 247.725 203.881 248.212C205.844 248.668 207.329 249.288 208.344 250.069C209.352 250.857 209.857 251.954 209.857 253.362C209.857 254.737 209.298 255.853 208.173 256.706C207.046 257.559 205.549 257.987 203.687 257.992C201.641 257.987 200.039 257.532 198.874 256.617C197.71 255.702 197.161 254.588 197.239 253.279L197.273 253.179H197.988C198.077 254.566 198.669 255.569 199.773 256.184C200.876 256.806 202.184 257.111 203.687 257.111C205.311 257.111 206.604 256.734 207.556 255.974C208.505 255.221 208.982 254.339 208.982 253.346ZM216.581 235.332V240.073H220.9V240.966H216.581V253.118C216.581 254.555 216.826 255.581 217.313 256.196C217.802 256.806 218.445 257.111 219.249 257.111C219.537 257.111 219.797 257.099 220.026 257.078C220.253 257.061 220.569 257.022 220.968 256.966L221.128 257.765C220.863 257.847 220.58 257.908 220.285 257.943C219.991 257.976 219.663 257.987 219.294 257.992C218.113 257.987 217.219 257.604 216.604 256.839C215.994 256.068 215.69 254.826 215.69 253.118V240.966H212.441V240.073H215.69V235.332H216.581ZM236.07 254.4C235.466 255.459 234.562 256.323 233.359 256.989C232.155 257.654 230.697 257.987 228.99 257.992C227.354 257.987 226.067 257.543 225.136 256.65C224.21 255.758 223.745 254.55 223.745 253.036C223.745 251.561 224.437 250.331 225.828 249.332C227.221 248.334 228.962 247.836 231.053 247.836H236.07V245.274C236.07 243.81 235.604 242.667 234.667 241.853C233.731 241.032 232.41 240.628 230.709 240.628C229.117 240.628 227.837 241.01 226.872 241.781C225.901 242.545 225.414 243.539 225.414 244.753L224.687 244.72L224.654 244.636C224.586 243.272 225.12 242.119 226.245 241.17C227.37 240.223 228.857 239.746 230.709 239.746C232.594 239.746 234.108 240.223 235.244 241.177C236.38 242.131 236.946 243.505 236.946 245.302V254.106C236.946 254.727 236.984 255.326 237.051 255.913C237.122 256.496 237.239 257.071 237.4 257.649H236.43C236.287 256.877 236.191 256.301 236.142 255.918C236.098 255.536 236.07 255.12 236.07 254.676V254.4ZM228.99 257.127C230.73 257.127 232.206 256.745 233.415 255.974C234.622 255.209 235.51 254.106 236.07 252.676V248.733H231.102C229.283 248.733 227.748 249.15 226.495 249.991C225.248 250.829 224.621 251.865 224.621 253.102C224.621 254.283 225.019 255.249 225.812 256.002C226.611 256.75 227.671 257.127 228.99 257.127ZM263.524 246.016H251.893V257.649H251.016V233.997H265.181V234.879H251.893V245.108H263.524V246.016ZM269.955 257.649H269.08V240.073H269.955V257.649ZM269.955 234.551H269.08V232.311H269.955V234.551ZM286.489 253.346C286.489 252.414 286.095 251.566 285.297 250.801C284.499 250.036 283.113 249.442 281.127 249.005C279.043 248.561 277.529 247.99 276.592 247.293C275.655 246.594 275.185 245.557 275.185 244.182C275.185 242.929 275.716 241.874 276.774 241.021C277.839 240.173 279.27 239.746 281.066 239.746C283.002 239.746 284.532 240.201 285.646 241.116C286.761 242.024 287.292 243.205 287.238 244.669L287.203 244.77H286.455C286.455 243.621 285.973 242.641 285.003 241.837C284.032 241.027 282.724 240.628 281.066 240.628C279.42 240.628 278.172 240.982 277.329 241.692C276.487 242.403 276.059 243.216 276.059 244.148C276.059 245.068 276.421 245.856 277.135 246.504C277.85 247.153 279.27 247.725 281.389 248.212C283.351 248.668 284.836 249.288 285.851 250.069C286.86 250.857 287.365 251.954 287.365 253.362C287.365 254.737 286.805 255.853 285.68 256.706C284.553 257.559 283.057 257.987 281.194 257.992C279.148 257.987 277.546 257.532 276.382 256.617C275.217 255.702 274.668 254.588 274.747 253.279L274.78 253.179H275.495C275.584 254.566 276.176 255.569 277.28 256.184C278.384 256.806 279.691 257.111 281.194 257.111C282.818 257.111 284.111 256.734 285.063 255.974C286.012 255.221 286.489 254.339 286.489 253.346ZM298.23 257.111C299.718 257.111 301.025 256.706 302.162 255.897C303.298 255.081 303.869 253.862 303.869 252.237H304.613L304.645 252.337C304.69 254.061 304.058 255.431 302.756 256.456C301.452 257.477 299.944 257.987 298.23 257.992C295.992 257.987 294.233 257.183 292.959 255.569C291.689 253.956 291.051 251.832 291.051 249.204V248.518C291.051 245.901 291.684 243.782 292.952 242.169C294.217 240.555 295.969 239.746 298.197 239.746C300.016 239.746 301.558 240.283 302.821 241.348C304.079 242.412 304.69 243.915 304.645 245.856L304.613 245.955H303.869C303.869 244.232 303.315 242.913 302.211 241.998C301.109 241.082 299.767 240.628 298.197 240.628C296.142 240.628 294.582 241.359 293.525 242.834C292.458 244.309 291.927 246.205 291.927 248.518V249.204C291.927 251.539 292.458 253.446 293.525 254.91C294.582 256.379 296.151 257.111 298.23 257.111ZM320.174 254.4C319.571 255.459 318.666 256.323 317.464 256.989C316.26 257.654 314.802 257.987 313.095 257.992C311.458 257.987 310.172 257.543 309.241 256.65C308.315 255.758 307.849 254.55 307.849 253.036C307.849 251.561 308.542 250.331 309.934 249.332C311.325 248.334 313.067 247.836 315.158 247.836H320.174V245.274C320.174 243.81 319.708 242.667 318.771 241.853C317.835 241.032 316.514 240.628 314.813 240.628C313.222 240.628 311.942 241.01 310.976 241.781C310.006 242.545 309.519 243.539 309.519 244.753L308.792 244.72L308.759 244.636C308.692 243.272 309.224 242.119 310.349 241.17C311.475 240.223 312.961 239.746 314.813 239.746C316.698 239.746 318.212 240.223 319.349 241.177C320.486 242.131 321.051 243.505 321.051 245.302V254.106C321.051 254.727 321.089 255.326 321.157 255.913C321.227 256.496 321.344 257.071 321.505 257.649H320.535C320.391 256.877 320.296 256.301 320.246 255.918C320.202 255.536 320.174 255.12 320.174 254.676V254.4ZM313.095 257.127C314.835 257.127 316.311 256.745 317.52 255.974C318.727 255.209 319.615 254.106 320.174 252.676V248.733H315.207C313.387 248.733 311.853 249.15 310.6 249.991C309.352 250.829 308.726 251.865 308.726 253.102C308.726 254.283 309.124 255.249 309.917 256.002C310.717 256.75 311.775 257.127 313.095 257.127ZM327.792 257.649H326.917V232.311H327.792V257.649Z" fill="#727376"/>
</svg>
