<?xml version="1.0" standalone="no"?>
<!DOCTYPE svg PUBLIC "-//W3C//DTD SVG 20010904//EN"
 "http://www.w3.org/TR/2001/REC-SVG-20010904/DTD/svg10.dtd">
<svg version="1.0" xmlns="http://www.w3.org/2000/svg"
 width="200.000000pt" height="60.000000pt" viewBox="0 0 200.000000 60.000000"
 preserveAspectRatio="xMidYMid meet">

<g transform="translate(0.000000,60.000000) scale(0.100000,-0.100000)"
fill="#000000" stroke="none">
<path d="M870 345 c0 -57 3 -75 14 -75 7 0 16 9 19 20 4 14 14 20 34 20 37 0
53 16 53 55 0 43 -16 55 -72 55 l-48 0 0 -75z m80 20 c0 -18 -5 -25 -19 -25
-11 0 -23 5 -26 10 -11 18 3 40 25 40 15 0 20 -7 20 -25z"/>
<path d="M1840 396 c0 -18 -4 -23 -18 -19 -27 7 -44 -20 -40 -64 3 -38 3 -38
51 -41 l47 -3 0 75 c0 69 -2 76 -20 76 -14 0 -20 -7 -20 -24z m0 -77 c0 -38
-24 -35 -28 4 -2 19 1 27 12 27 11 0 16 -10 16 -31z"/>
<path d="M1027 373 c-16 -15 -5 -24 23 -18 23 5 30 3 30 -9 0 -9 -12 -16 -32
-18 -28 -2 -33 -7 -33 -28 0 -23 4 -25 48 -28 l47 -3 0 49 c0 36 -4 52 -16 56
-21 8 -59 8 -67 -1z m51 -71 c2 -7 -3 -12 -12 -12 -9 0 -16 7 -16 16 0 17 22
14 28 -4z"/>
<path d="M1153 374 c-7 -3 -13 -17 -13 -30 0 -19 6 -26 30 -30 17 -4 30 -11
30 -16 0 -6 -13 -7 -31 -3 -24 6 -30 4 -27 -6 3 -8 22 -15 45 -17 34 -3 42 0
48 17 9 28 1 37 -35 44 -16 4 -30 11 -30 18 0 7 11 8 31 4 24 -5 30 -4 27 6
-5 14 -53 22 -75 13z"/>
<path d="M1273 373 c-7 -2 -13 -16 -13 -29 0 -19 6 -26 30 -31 17 -3 33 -10
37 -16 4 -6 -7 -7 -32 -3 -28 6 -36 4 -33 -6 3 -8 21 -13 49 -13 40 0 44 2 44
24 0 20 -7 27 -33 33 -42 11 -32 29 11 21 29 -6 31 -5 18 10 -13 16 -52 21
-78 10z"/>
<path d="M1380 363 c0 -10 3 -35 6 -55 5 -31 11 -38 30 -38 17 0 24 7 30 33
l7 32 9 -32 c7 -26 14 -33 33 -33 17 0 25 6 25 18 0 9 3 34 6 55 5 30 4 37
-10 37 -11 0 -16 -9 -16 -30 0 -38 -18 -40 -22 -2 -4 37 -41 39 -46 2 -6 -42
-22 -47 -22 -7 0 26 -4 37 -15 37 -8 0 -15 -8 -15 -17z"/>
<path d="M1561 366 c-7 -8 -11 -32 -9 -53 3 -36 5 -38 42 -41 24 -2 42 2 47
10 13 19 11 72 -3 86 -16 16 -63 15 -77 -2z m54 -46 c0 -36 -29 -33 -33 3 -3
23 0 28 15 25 12 -2 18 -12 18 -28z"/>
<path d="M1680 324 c0 -41 4 -54 15 -54 11 0 15 11 15 40 0 22 5 40 10 40 6 0
10 -4 10 -10 0 -5 7 -10 16 -10 10 0 14 7 12 23 -2 18 -10 22 -40 23 l-38 1 0
-53z"/>
<path d="M864 215 c-8 -19 3 -35 24 -35 16 1 16 1 0 11 -10 5 -18 14 -18 19 0
5 8 11 18 13 16 4 16 5 -1 6 -10 0 -20 -6 -23 -14z"/>
<path d="M920 217 c0 -10 8 -17 18 -17 9 0 13 4 7 8 -5 4 -13 11 -17 16 -5 5
-8 2 -8 -7z"/>
<path d="M960 203 c0 -22 2 -25 10 -13 8 12 11 13 19 1 6 -9 9 -6 9 13 0 19
-6 26 -19 26 -14 0 -19 -7 -19 -27z"/>
<path d="M1080 209 c0 -11 5 -17 10 -14 6 4 8 10 5 15 -3 4 1 11 7 13 8 3 6 6
-4 6 -12 1 -18 -6 -18 -20z"/>
<path d="M1122 205 c0 -16 2 -22 5 -12 2 9 2 23 0 30 -3 6 -5 -1 -5 -18z"/>
<path d="M1143 214 c-8 -22 13 -42 30 -25 10 10 9 11 -5 6 -12 -5 -18 -2 -18
8 0 9 8 18 18 20 16 4 16 5 -1 6 -10 0 -20 -6 -24 -15z"/>
<path d="M1196 214 c-10 -25 -7 -30 14 -30 25 0 27 16 3 17 -11 0 -13 3 -5 6
14 5 16 23 3 23 -5 0 -12 -7 -15 -16z"/>
<path d="M1240 205 c0 -20 4 -26 18 -23 9 2 17 12 17 23 0 11 -8 21 -17 23
-14 3 -18 -3 -18 -23z m30 0 c0 -8 -4 -15 -10 -15 -5 0 -10 7 -10 15 0 8 5 15
10 15 6 0 10 -7 10 -15z"/>
<path d="M1294 215 c-4 -9 -2 -21 4 -27 15 -15 44 -1 40 19 -4 23 -36 29 -44
8z m36 -10 c0 -8 -7 -15 -15 -15 -8 0 -15 7 -15 15 0 8 7 15 15 15 8 0 15 -7
15 -15z"/>
<path d="M1370 205 c0 -20 4 -26 18 -23 9 2 17 12 17 23 0 11 -8 21 -17 23
-14 3 -18 -3 -18 -23z m30 0 c0 -8 -4 -15 -10 -15 -5 0 -10 7 -10 15 0 8 5 15
10 15 6 0 10 -7 10 -15z"/>
<path d="M1422 205 c0 -16 2 -22 5 -12 2 9 2 23 0 30 -3 6 -5 -1 -5 -18z"/>
<path d="M1440 221 c0 -5 9 -7 20 -4 11 3 20 7 20 9 0 2 -9 4 -20 4 -11 0 -20
-4 -20 -9z"/>
<path d="M1492 205 c0 -16 2 -22 5 -12 2 9 2 23 0 30 -3 6 -5 -1 -5 -18z"/>
<path d="M1520 205 c0 -14 2 -25 4 -25 2 0 6 11 8 25 3 14 1 25 -3 25 -5 0 -9
-11 -9 -25z"/>
<path d="M1556 214 c-10 -25 -7 -30 14 -30 25 0 27 16 3 17 -11 0 -13 3 -5 6
14 5 16 23 3 23 -5 0 -12 -7 -15 -16z"/>
<path d="M1601 208 c-1 -21 4 -28 17 -28 11 0 13 3 6 8 -7 4 -14 16 -17 27 -4
15 -5 14 -6 -7z"/>
<path d="M1730 206 c0 -31 6 -34 13 -6 3 11 1 23 -4 26 -5 3 -9 -6 -9 -20z"/>
<path d="M1756 213 c-4 -9 -2 -21 4 -27 7 -7 10 -2 10 17 0 31 -5 34 -14 10z"/>
<path d="M1780 205 c0 -22 2 -24 14 -13 9 8 10 15 4 19 -6 4 -5 9 3 12 10 4 9
6 -3 6 -13 1 -18 -7 -18 -24z"/>
<path d="M1851 207 c-11 -14 -6 -27 10 -27 5 0 5 7 2 17 -5 12 -3 14 7 8 9 -5
11 -4 6 3 -9 15 -11 15 -25 -1z"/>
<path d="M1470 199 c0 -6 -7 -8 -16 -5 -8 3 -12 2 -9 -4 10 -15 35 -12 35 5 0
8 -2 15 -5 15 -3 0 -5 -5 -5 -11z"/>
<path d="M928 183 c7 -3 16 -2 19 1 4 3 -2 6 -13 5 -11 0 -14 -3 -6 -6z"/>
</g>
</svg>
